<svg width="20" height="20" viewBox="0 0 20 20" fill="none" xmlns="http://www.w3.org/2000/svg">
<path d="M2.15297 2.00013L4.00995 13.146C4.04386 13.3795 4.15978 13.5932 4.33695 13.749C4.52384 13.9148 4.76616 14.0043 5.01594 14H15.9998C16.2098 14 16.4144 13.934 16.5848 13.8112C16.7551 13.6885 16.8824 13.5152 16.9488 13.316L19.9488 4.3161C19.9988 4.16577 20.0125 4.00569 19.9885 3.84906C19.9646 3.69243 19.9038 3.54373 19.8111 3.41521C19.7184 3.28669 19.5965 3.18203 19.4555 3.10986C19.3144 3.0377 19.1582 3.00008 18.9998 3.00012H4.34695L3.98995 0.850144C3.9533 0.604499 3.82593 0.381506 3.63296 0.225152C3.45006 0.0757229 3.2201 -0.00400138 2.98396 0.000154656H0.999988C0.734775 0.000154656 0.480424 0.10551 0.29289 0.293044C0.105356 0.480578 0 0.734929 0 1.00014C0 1.26536 0.105356 1.51971 0.29289 1.70724C0.480424 1.89478 0.734775 2.00013 0.999988 2.00013H2.15297ZM5.84693 12L4.67994 5.00009H17.6128L15.2788 12H5.84693ZM7.9999 17.9999C7.9999 18.5304 7.78919 19.0391 7.41412 19.4141C7.03906 19.7892 6.53035 19.9999 5.99993 19.9999C5.4695 19.9999 4.9608 19.7892 4.58573 19.4141C4.21066 19.0391 3.99995 18.5304 3.99995 17.9999C3.99995 17.4695 4.21066 16.9608 4.58573 16.5857C4.9608 16.2107 5.4695 16 5.99993 16C6.53035 16 7.03906 16.2107 7.41412 16.5857C7.78919 16.9608 7.9999 17.4695 7.9999 17.9999ZM16.9998 17.9999C16.9998 18.5304 16.7891 19.0391 16.414 19.4141C16.0389 19.7892 15.5302 19.9999 14.9998 19.9999C14.4694 19.9999 13.9607 19.7892 13.5856 19.4141C13.2106 19.0391 12.9998 18.5304 12.9998 17.9999C12.9998 17.4695 13.2106 16.9608 13.5856 16.5857C13.9607 16.2107 14.4694 16 14.9998 16C15.5302 16 16.0389 16.2107 16.414 16.5857C16.7891 16.9608 16.9998 17.4695 16.9998 17.9999Z" fill="white"/>
</svg>
