<svg width="15" height="14" viewBox="0 0 15 14" fill="none" xmlns="http://www.w3.org/2000/svg">
<path d="M7.22521 0.274491C7.40096 0.450301 7.4997 0.688717 7.4997 0.937312C7.4997 1.18591 7.40096 1.42432 7.22521 1.60013L3.20047 5.62487H14.0625C14.3111 5.62487 14.5496 5.72365 14.7254 5.89947C14.9012 6.07528 15 6.31374 15 6.56239C15 6.81103 14.9012 7.04949 14.7254 7.22531C14.5496 7.40113 14.3111 7.4999 14.0625 7.4999H3.20047L7.22521 11.5246C7.39598 11.7015 7.49048 11.9383 7.48834 12.1841C7.48621 12.4299 7.38761 12.665 7.21379 12.8389C7.03997 13.0127 6.80483 13.1113 6.55901 13.1134C6.3132 13.1156 6.07638 13.0211 5.89957 12.8503L0.274491 7.22521C0.0987346 7.0494 0 6.81098 0 6.56239C0 6.31379 0.0987346 6.07538 0.274491 5.89957L5.89957 0.274491C6.07538 0.0987346 6.31379 0 6.56239 0C6.81098 0 7.0494 0.0987346 7.22521 0.274491Z" fill="white" fill-opacity="0.85"/>
</svg>
