<svg width="20" height="23" viewBox="0 0 20 23" fill="none" xmlns="http://www.w3.org/2000/svg">
<path d="M10 2.22222C8.82126 2.22222 7.6908 2.69047 6.8573 3.52397C6.02381 4.35746 5.55556 5.48793 5.55556 6.66667C5.55556 7.84541 6.02381 8.97587 6.8573 9.80936C7.6908 10.6429 8.82126 11.1111 10 11.1111C11.1787 11.1111 12.3092 10.6429 13.1427 9.80936C13.9762 8.97587 14.4444 7.84541 14.4444 6.66667C14.4444 5.48793 13.9762 4.35746 13.1427 3.52397C12.3092 2.69047 11.1787 2.22222 10 2.22222ZM3.33333 6.66667C3.33333 4.89856 4.03571 3.20286 5.28596 1.95262C6.5362 0.702379 8.23189 0 10 0C11.7681 0 13.4638 0.702379 14.714 1.95262C15.9643 3.20286 16.6667 4.89856 16.6667 6.66667C16.6667 8.43478 15.9643 10.1305 14.714 11.3807C13.4638 12.631 11.7681 13.3333 10 13.3333C8.23189 13.3333 6.5362 12.631 5.28596 11.3807C4.03571 10.1305 3.33333 8.43478 3.33333 6.66667ZM5.55556 17.7778C4.6715 17.7778 3.82365 18.129 3.19853 18.7541C2.57341 19.3792 2.22222 20.2271 2.22222 21.1111C2.22222 21.4058 2.10516 21.6884 1.89679 21.8968C1.68841 22.1052 1.4058 22.2222 1.11111 22.2222C0.816426 22.2222 0.533811 22.1052 0.325437 21.8968C0.117063 21.6884 0 21.4058 0 21.1111C0 19.6377 0.585316 18.2246 1.62718 17.1827C2.66905 16.1409 4.08213 15.5556 5.55556 15.5556H14.4444C15.9179 15.5556 17.3309 16.1409 18.3728 17.1827C19.4147 18.2246 20 19.6377 20 21.1111C20 21.4058 19.8829 21.6884 19.6746 21.8968C19.4662 22.1052 19.1836 22.2222 18.8889 22.2222C18.5942 22.2222 18.3116 22.1052 18.1032 21.8968C17.8948 21.6884 17.7778 21.4058 17.7778 21.1111C17.7778 20.2271 17.4266 19.3792 16.8015 18.7541C16.1763 18.129 15.3285 17.7778 14.4444 17.7778H5.55556Z" fill="white"/>
</svg>
